{"title":"TED2.2015.XVID.AC3.EN.FR-VFQ.FuDs1QCle","uid":12136332,"size":1771804245,"categoryP":"video","categoryS":"movies","magnet":"?xt=urn:btih:e935db6de9eaa79b47bfa797a7a480bd5eefab32&amp;dn=TED2.2015.XVID.AC3.EN.FR-VFQ.FuDs1QCle&amp;tr=udp%3A%2F%2Ftracker.openbittorrent.com%3A80&amp;tr=udp%3A%2F%2Fopen.demonii.com%3A1337&amp;tr=udp%3A%2F%2Ftracker.coppersurfer.tk%3A6969&amp;tr=udp%3A%2F%2Fexodus.desync.com%3A6969","seeders":0,"leechers":1,"uploader":"coolfdu1","files":1,"time":1437189630,"description":"Newly wed couple Ted and Tami-Lynn want to have a baby, but in order to qualify to be a parent, Ted will have to prove he's a person in a court of law.\n\nDirector: Seth MacFarlane\nWriters: Seth MacFarlane, Alec Sulkin\nStars: Mark Wahlberg, Seth MacFarlane, Amanda Seyfried\nGenres: Comedy\nCountry: USA\nLanguage: English, French (QC)\n\nVideo: 720x304 @bitrate +1500 2pass\nAudio: English Line Stereo 2.0, French 2.0\n\nVideo\nID: 0\nFormat: MPEG-4 Visual\nFormat profile: Advanced Simple@L5\nFormat settings, BVOP: 2\nFormat settings, QPel: Yes\nFormat settings, GMC: No warppoints\nFormat settings, Matrix: Default (H.263)\nMuxing mode: Packed bitstream\nCodec ID: XVID\nCodec ID/Hint: XviD\nDuration: 1h 55mn\nBit rate: 1 558 Kbps\nWidth: 720 pixels\nHeight: 304 pixels\nDisplay aspect ratio: 2.35:1\nFrame rate: 29.970 fps\nColor space: YUV\nChroma subsampling: 4:2:0\nBit depth: 8 bits\nScan type: Progressive\nCompression mode: Lossy\nBits/(Pixel*Frame): 0.238\nStream size: 1.26 GiB (76%)\nWriting library: XviD 1.2.1 (UTC 2008-12-04)\n\nAudio\nID: 1\nFormat: AC-3\nFormat/Info: Audio Coding 3\nMode extension: CM (complete main)\nFormat settings, Endianness: Big\nCodec ID: A_AC3\nDuration: 1h 55mn\nBit rate mode: Constant\nBit rate: 256 Kbps\nChannel(s): 2 channels\nChannel positions: Front: L R\nSampling rate: 48.0 KHz\nBit depth: 16 bits\nCompression mode: Lossy\nStream size: 211 MiB (13%)\nLanguage: English\n\nAudio\nID: 2\nFormat: AC-3\nFormat/Info: Audio Coding 3\nMode extension: CM (complete main)\nFormat settings, Endianness: Big\nCodec ID: A_AC3\nDuration: 1h 55mn\nBit rate mode: Constant\nBit rate: 192 Kbps\nChannel(s): 2 channels\nChannel positions: Front: L R\nSampling rate: 48.0 KHz\nBit depth: 16 bits\nCompression mode: Lossy\nStream size: 159 MiB (9%)\nLanguage: French","torrent":{"xt":"urn:btih:e935db6de9eaa79b47bfa797a7a480bd5eefab32","amp;dn":"TED2.2015.XVID.AC3.EN.FR-VFQ.FuDs1QCle","amp;tr":["udp%3A%2F%2Ftracker.openbittorrent.com%3A80","udp%3A%2F%2Fopen.demonii.com%3A1337","udp%3A%2F%2Ftracker.coppersurfer.tk%3A6969","udp%3A%2F%2Fexodus.desync.com%3A6969"],"infoHash":"e935db6de9eaa79b47bfa797a7a480bd5eefab32","infoHashBuffer":{"type":"Buffer","data":[233,53,219,109,233,234,167,155,71,191,167,151,167,164,128,189,94,239,171,50]},"announce":[],"urlList":[]}}